<mxfile host="app.diagrams.net" agent="Mozilla/5.0 (Windows NT 10.0; Win64; x64) AppleWebKit/537.36 (KHTML, like Gecko) Chrome/135.0.0.0 Safari/537.36 Edg/135.0.0.0" version="26.2.7">
  <diagram name="Page-1" id="9e3magIwMuj51JAFRWkG">
    <mxGraphModel dx="1420" dy="752" grid="1" gridSize="10" guides="1" tooltips="1" connect="1" arrows="1" fold="1" page="1" pageScale="1" pageWidth="850" pageHeight="1100" math="0" shadow="0">
      <root>
        <mxCell id="0" />
        <mxCell id="1" parent="0" />
        <mxCell id="ml2cI_JBP5PCyZM12zHJ-3" style="edgeStyle=orthogonalEdgeStyle;rounded=0;orthogonalLoop=1;jettySize=auto;html=1;exitX=1;exitY=0.5;exitDx=0;exitDy=0;entryX=0;entryY=0.5;entryDx=0;entryDy=0;flowAnimation=1;" edge="1" parent="1" source="ml2cI_JBP5PCyZM12zHJ-1" target="ml2cI_JBP5PCyZM12zHJ-2">
          <mxGeometry relative="1" as="geometry" />
        </mxCell>
        <mxCell id="ml2cI_JBP5PCyZM12zHJ-1" value="ChatBot/ AI Insights/ Guidance/ AI Companion" style="rounded=0;whiteSpace=wrap;html=1;" vertex="1" parent="1">
          <mxGeometry x="80" y="240" width="100" height="120" as="geometry" />
        </mxCell>
        <mxCell id="ml2cI_JBP5PCyZM12zHJ-8" style="edgeStyle=orthogonalEdgeStyle;rounded=0;orthogonalLoop=1;jettySize=auto;html=1;exitX=1;exitY=0.25;exitDx=0;exitDy=0;entryX=0;entryY=0.5;entryDx=0;entryDy=0;flowAnimation=1;" edge="1" parent="1" source="ml2cI_JBP5PCyZM12zHJ-2" target="ml2cI_JBP5PCyZM12zHJ-5">
          <mxGeometry relative="1" as="geometry" />
        </mxCell>
        <mxCell id="ml2cI_JBP5PCyZM12zHJ-9" style="edgeStyle=orthogonalEdgeStyle;rounded=0;orthogonalLoop=1;jettySize=auto;html=1;exitX=1;exitY=0.5;exitDx=0;exitDy=0;entryX=0;entryY=0.5;entryDx=0;entryDy=0;flowAnimation=1;" edge="1" parent="1" source="ml2cI_JBP5PCyZM12zHJ-2" target="ml2cI_JBP5PCyZM12zHJ-6">
          <mxGeometry relative="1" as="geometry" />
        </mxCell>
        <mxCell id="ml2cI_JBP5PCyZM12zHJ-10" style="edgeStyle=orthogonalEdgeStyle;rounded=0;orthogonalLoop=1;jettySize=auto;html=1;exitX=1;exitY=0.75;exitDx=0;exitDy=0;entryX=0;entryY=0.5;entryDx=0;entryDy=0;flowAnimation=1;" edge="1" parent="1" source="ml2cI_JBP5PCyZM12zHJ-2" target="ml2cI_JBP5PCyZM12zHJ-7">
          <mxGeometry relative="1" as="geometry" />
        </mxCell>
        <mxCell id="ml2cI_JBP5PCyZM12zHJ-26" style="edgeStyle=orthogonalEdgeStyle;rounded=0;orthogonalLoop=1;jettySize=auto;html=1;exitX=0.4;exitY=1;exitDx=0;exitDy=0;entryX=0;entryY=0.5;entryDx=0;entryDy=0;exitPerimeter=0;startArrow=none;startFill=0;flowAnimation=1;" edge="1" parent="1" source="ml2cI_JBP5PCyZM12zHJ-2" target="ml2cI_JBP5PCyZM12zHJ-25">
          <mxGeometry relative="1" as="geometry" />
        </mxCell>
        <mxCell id="ml2cI_JBP5PCyZM12zHJ-2" value="Supervisor Agent" style="rounded=0;whiteSpace=wrap;html=1;" vertex="1" parent="1">
          <mxGeometry x="240" y="240" width="100" height="120" as="geometry" />
        </mxCell>
        <mxCell id="ml2cI_JBP5PCyZM12zHJ-4" value="Intent Identification&lt;div&gt;Dialog Management&lt;/div&gt;&lt;div&gt;Chat log&lt;/div&gt;" style="text;html=1;align=center;verticalAlign=middle;whiteSpace=wrap;rounded=0;" vertex="1" parent="1">
          <mxGeometry x="230" y="190" width="120" height="30" as="geometry" />
        </mxCell>
        <mxCell id="ml2cI_JBP5PCyZM12zHJ-11" style="edgeStyle=orthogonalEdgeStyle;rounded=0;orthogonalLoop=1;jettySize=auto;html=1;exitX=1;exitY=0.5;exitDx=0;exitDy=0;startArrow=classic;startFill=1;" edge="1" parent="1" source="ml2cI_JBP5PCyZM12zHJ-5">
          <mxGeometry relative="1" as="geometry">
            <mxPoint x="560" y="140" as="targetPoint" />
          </mxGeometry>
        </mxCell>
        <mxCell id="ml2cI_JBP5PCyZM12zHJ-5" value="Policy Agent" style="rounded=0;whiteSpace=wrap;html=1;" vertex="1" parent="1">
          <mxGeometry x="400" y="80" width="120" height="120" as="geometry" />
        </mxCell>
        <mxCell id="ml2cI_JBP5PCyZM12zHJ-14" style="edgeStyle=orthogonalEdgeStyle;rounded=0;orthogonalLoop=1;jettySize=auto;html=1;exitX=1;exitY=0.5;exitDx=0;exitDy=0;entryX=0;entryY=0.5;entryDx=0;entryDy=0;startArrow=classic;startFill=1;" edge="1" parent="1" source="ml2cI_JBP5PCyZM12zHJ-6" target="ml2cI_JBP5PCyZM12zHJ-13">
          <mxGeometry relative="1" as="geometry" />
        </mxCell>
        <mxCell id="ml2cI_JBP5PCyZM12zHJ-6" value="Claims Agent&amp;nbsp;" style="rounded=0;whiteSpace=wrap;html=1;" vertex="1" parent="1">
          <mxGeometry x="400" y="240" width="120" height="120" as="geometry" />
        </mxCell>
        <mxCell id="ml2cI_JBP5PCyZM12zHJ-18" style="edgeStyle=orthogonalEdgeStyle;rounded=0;orthogonalLoop=1;jettySize=auto;html=1;exitX=1;exitY=0.5;exitDx=0;exitDy=0;entryX=0;entryY=0.5;entryDx=0;entryDy=0;startArrow=classic;startFill=1;" edge="1" parent="1" source="ml2cI_JBP5PCyZM12zHJ-7" target="ml2cI_JBP5PCyZM12zHJ-15">
          <mxGeometry relative="1" as="geometry" />
        </mxCell>
        <mxCell id="ml2cI_JBP5PCyZM12zHJ-7" value="Customer Agent" style="rounded=0;whiteSpace=wrap;html=1;" vertex="1" parent="1">
          <mxGeometry x="400" y="400" width="120" height="120" as="geometry" />
        </mxCell>
        <mxCell id="ml2cI_JBP5PCyZM12zHJ-12" value="Policy Details Tool" style="rounded=0;whiteSpace=wrap;html=1;" vertex="1" parent="1">
          <mxGeometry x="560" y="110" width="120" height="60" as="geometry" />
        </mxCell>
        <mxCell id="ml2cI_JBP5PCyZM12zHJ-13" value="Claim Details Tool" style="rounded=0;whiteSpace=wrap;html=1;" vertex="1" parent="1">
          <mxGeometry x="560" y="270" width="120" height="60" as="geometry" />
        </mxCell>
        <mxCell id="ml2cI_JBP5PCyZM12zHJ-15" value="Customer Details Tool" style="rounded=0;whiteSpace=wrap;html=1;" vertex="1" parent="1">
          <mxGeometry x="560" y="430" width="120" height="60" as="geometry" />
        </mxCell>
        <mxCell id="ml2cI_JBP5PCyZM12zHJ-19" value="" style="shape=mxgraph.signs.healthcare.brain;html=1;pointerEvents=1;fillColor=#000000;strokeColor=none;verticalLabelPosition=bottom;verticalAlign=top;align=center;" vertex="1" parent="1">
          <mxGeometry x="265.75" y="250" width="48.5" height="45" as="geometry" />
        </mxCell>
        <mxCell id="ml2cI_JBP5PCyZM12zHJ-21" value="" style="shape=mxgraph.signs.healthcare.brain;html=1;pointerEvents=1;fillColor=#000000;strokeColor=none;verticalLabelPosition=bottom;verticalAlign=top;align=center;" vertex="1" parent="1">
          <mxGeometry x="435.75" y="80" width="48.5" height="45" as="geometry" />
        </mxCell>
        <mxCell id="ml2cI_JBP5PCyZM12zHJ-22" value="" style="shape=mxgraph.signs.healthcare.brain;html=1;pointerEvents=1;fillColor=#000000;strokeColor=none;verticalLabelPosition=bottom;verticalAlign=top;align=center;" vertex="1" parent="1">
          <mxGeometry x="435.75" y="250" width="48.5" height="45" as="geometry" />
        </mxCell>
        <mxCell id="ml2cI_JBP5PCyZM12zHJ-25" value="Guidance Agent" style="rounded=0;whiteSpace=wrap;html=1;" vertex="1" parent="1">
          <mxGeometry x="398" y="560" width="120" height="120" as="geometry" />
        </mxCell>
        <mxCell id="ml2cI_JBP5PCyZM12zHJ-27" value="" style="shape=mxgraph.signs.healthcare.brain;html=1;pointerEvents=1;fillColor=#000000;strokeColor=none;verticalLabelPosition=bottom;verticalAlign=top;align=center;" vertex="1" parent="1">
          <mxGeometry x="439.75" y="405" width="48.5" height="45" as="geometry" />
        </mxCell>
        <mxCell id="ml2cI_JBP5PCyZM12zHJ-28" value="" style="shape=mxgraph.signs.healthcare.brain;html=1;pointerEvents=1;fillColor=#000000;strokeColor=none;verticalLabelPosition=bottom;verticalAlign=top;align=center;" vertex="1" parent="1">
          <mxGeometry x="435.75" y="570" width="48.5" height="45" as="geometry" />
        </mxCell>
      </root>
    </mxGraphModel>
  </diagram>
</mxfile>
